<svg xmlns="http://www.w3.org/2000/svg" viewBox="0 0 64 64" fill="none">
  <circle cx="32" cy="32" r="32" fill="#26A17B"/>
  <path d="M36.5 28.3v-4.8h8.2v-6H19.3v6h8.2v4.8C21.1 28.8 16 30.6 16 32.8s5.1 4 11.5 4.5v12.2h9V37.3c6.3-.5 11.3-2.3 11.3-4.5s-5-4-11.3-4.5zm0 7.7v-.002c-.3.02-.7.035-1 .052-.2.01-.4.015-.6.02a45.4 45.4 0 01-2.4.03c-.7 0-1.3-.01-1.9-.03-.3-.01-.5-.015-.8-.025-.3-.015-.5-.03-.8-.045v.003C24.4 35.6 20.4 34.3 20.4 32.8s4-2.8 8.6-3.2v5.1c.3.02.5.04.8.055.3.02.5.035.8.045.6.025 1.2.04 1.9.04.8 0 1.6-.015 2.3-.045l.7-.03c.3-.015.7-.035 1-.055v-5.1c4.5.4 8.5 1.7 8.5 3.2s-4 2.8-8.5 3.2z" fill="#fff"/>
</svg>
